inDegrees=yes
name=ik_Xsens_quaternion
DataType=double
version=3
OpenSimVersion=4.4-2022-07-23-0e9fedc
endheader
time	pelvis_tilt	pelvis_list	pelvis_rotation	pelvis_tx	pelvis_ty	pelvis_tz	hip_flexion_r	hip_adduction_r	hip_rotation_r	knee_angle_r	knee_angle_r_beta	ankle_angle_r	subtalar_angle_r	mtp_angle_r	hip_flexion_l	hip_adduction_l	hip_rotation_l	knee_angle_l	knee_angle_l_beta	ankle_angle_l	subtalar_angle_l	mtp_angle_l	lumbar_extension	lumbar_bending	lumbar_rotation	arm_flex_r	arm_add_r	arm_rot_r	elbow_flex_r	pro_sup_r	wrist_flex_r	wrist_dev_r	arm_flex_l	arm_add_l	arm_rot_l	elbow_flex_l	pro_sup_l	wrist_flex_l	wrist_dev_l
42.53333333333333	1.003606098049695e-44	-7.52704573537271e-45	2.509015245124237e-45	-2.802596928649634e-45	0.93	-5.254869241218064e-46	4.594144125593695e-49	-1.003606098049695e-44	-8.028848784397557e-44	2.426570649309934e-20	6.755631809941001e-23	-1.973169877253544e-39	3.083077933208662e-41	-1.262828721442268e-37	-3.211539513759023e-43	-1.724182147675843e-34	5.38806921148701e-36	2.426570649309934e-20	-8.172266057978307e-23	-8.418858142948453e-38	2.46646234656693e-40	1.973169877253544e-39	1.724182147675843e-34	-2.586273221513765e-34	1.724182147675843e-34	-0.00556242575235621	-0.0006729944191894839	-0.000399716427851223	-0.003031876897137327	-0.0003736767847367437	6.166155866417324e-41	-3.083077933208662e-41	-0.5932127255774583	9.453925250294425	11.90606292194168	-2.538012491301353	-0.0003325895640827632	-3.083077933208662e-41	6.021636588298168e-44
42.55	4.080419669344422e-64	-2.720279779562948e-64	1.020104917336105e-64	-1.139468129491176e-64	0.93	-1.89911354915196e-65	4.594144125593695e-49	-4.080419669344422e-64	-3.264335735475537e-63	2.426570649309934e-20	6.755631809941001e-23	-7.131050225337494e-59	1.114226597708983e-60	-4.563872144215996e-57	4.594144125593695e-49	-7.01010761351577e-54	2.190658629223678e-55	2.426570649309934e-20	-8.172266057978307e-23	-3.422904108161997e-57	8.913812781671868e-60	7.131050225337494e-59	7.01010761351577e-54	-9.34681015135436e-54	7.01010761351577e-54	-0.00556242575235621	-0.0006729944191894839	-0.000399716427851223	-0.003031876897137327	-0.0003736767847367437	2.228453195417967e-60	-1.114226597708983e-60	-0.531797523301863	9.474690321774419	11.83186748214901	-2.575910858263336	-0.0003325895640827632	-1.114226597708983e-60	2.176223823650358e-63
42.56666666666666	1.474666623385269e-83	-1.105999967538951e-83	3.686666558463171e-84	-4.118046071574423e-84	0.93	-7.721336384202043e-85	4.594144125593695e-49	-1.474666623385269e-83	-1.179733298708215e-82	2.426570649309934e-20	6.755631809941001e-23	-2.899312554905309e-78	4.530175867039545e-80	-1.855560035139398e-76	4.594144125593695e-49	-2.533457967976991e-73	7.917056149928097e-75	2.426570649309934e-20	-8.172266057978307e-23	-1.237040023426265e-76	3.624140693631636e-79	2.899312554905309e-78	2.533457967976991e-73	-3.800186951965486e-73	2.533457967976991e-73	-0.00556242575235621	-0.0006729944191894839	-0.000399716427851223	-0.003031876897137327	-0.0003736767847367437	9.06035173407909e-80	-4.530175867039545e-80	-0.4897329249515965	9.489153956984969	11.78398925187838	-2.575171002957816	-0.0003325895640827632	-4.530175867039545e-80	8.847999740311612e-83
42.58333333333334	5.995637837873143e-103	-3.997091891915428e-103	1.498909459468286e-103	-1.674297936448645e-103	0.93	-2.790496560747742e-104	4.594144125593695e-49	-5.995637837873143e-103	-4.796510270298514e-102	2.426570649309934e-20	1.514091294753499e-23	-1.047813656914278e-97	1.637208838928559e-99	-6.70600740425138e-96	4.594144125593695e-49	-1.030042737293012e-92	3.218883554040662e-94	2.426570649309934e-20	7.76201710819169e-23	-5.029505553188535e-96	1.309767071142848e-98	1.047813656914278e-97	1.030042737293012e-92	-1.373390316390683e-92	1.030042737293012e-92	-0.00556242575235621	-0.0006729944191894839	-0.000399716427851223	-0.003031876897137327	-0.0003736767847367437	3.274417677857119e-99	-1.637208838928559e-99	-0.4336932097237522	9.506032128102969	11.74600363878618	-2.570929947258038	-0.0003325895640827632	-1.637208838928559e-99	3.197673513532343e-102
42.6	2.166827856419451e-122	-1.625120892314588e-122	5.417069641048628e-123	-6.05092486695206e-123	0.93	-1.134548412553511e-123	4.594144125593695e-49	-2.166827856419451e-122	-1.733462285135561e-121	2.426570649309934e-20	1.514091294753499e-23	-4.260156911949155e-117	6.656495174920554e-119	-2.726500423647459e-115	4.594144125593695e-49	-3.722581911753331e-112	1.163306847422916e-113	2.426570649309934e-20	7.76201710819169e-23	-1.817666949098306e-115	5.325196139936444e-118	4.260156911949155e-117	3.722581911753331e-112	-5.583872867629996e-112	3.722581911753331e-112	-0.00556242575235621	-0.0006729944191894839	-0.000399716427851223	-0.003031876897137327	-0.0003736767847367437	1.331299034984111e-118	-6.656495174920554e-119	-0.3785149627951456	9.52302154861146	11.71492051619906	-2.558519468523067	-0.0003325895640827632	-6.656495174920554e-119	1.300096713851671e-121
42.61666666666667	0	0	0	0	0.93	0	0	0	0	0	0	0	0	0	0	0	0	0	0	0	0	0	0	0	0	-0.00556242575235621	-0.0006729944191894839	-0.000399716427851223	-0.003031876897137327	-0.0003736767847367437	0	0	-0.3276557359784641	9.558733902790081	11.71645628782592	-2.582727663248735	-0.0003325895640827632	0	0
42.63333333333333	0	0	0	0	0.93	0	0	0	0	0	0	0	0	0	0	0	0	0	0	0	0	0	0	0	0	-0.00556242575235621	-0.0006729944191894839	-0.000399716427851223	-0.003031876897137327	-0.0003736767847367437	0	0	-0.3008982493366614	9.599293336079215	11.79320922098399	-2.586053963457407	-0.0003325895640827632	0	0
42.65	0	0	0	0	0.93	0	6.084970228863522e-39	0	0	0	2.309002544162077e-38	0	0	0	6.084970228863522e-39	0	0	0	2.309002544162077e-38	0	0	0	0	0	0	-0.00556242575235621	-0.0006729944191894839	-0.000399716427851223	-0.003031876897137327	-0.0003736767847367437	0	0	-0.2747887351564827	9.651296772794565	11.9082870738152	-2.587184429370925	-0.0003325895640827632	0	0
42.66666666666666	0	0	0	0	0.93	0	0	0	0	0	0	0	0	0	0	0	0	0	0	0	0	0	0	0	0	-0.00556242575235621	-0.0006729944191894839	-0.000399716427851223	-0.003031876897137327	-0.0003736767847367437	0	0	-0.2273180284781146	9.697074102935311	11.99258745260966	-2.58728682379523	-0.0003325895640827632	0	0
42.68333333333333	0	0	0	0	0.93	0	0	0	0	0	0	0	0	0	0	0	0	0	0	0	0	0	0	0	0	-0.00556242575235621	-0.0006729944191894839	-0.000399716427851223	-0.003031876897137327	-0.0003736767847367437	0	0	-0.175099026341177	9.745381936990967	12.06137839087352	-2.569307120403316	-0.0003325895640827632	0	0
42.7	0	0	0	0	0.93	0	0	0	0	0	0	0	0	0	0	0	0	0	0	0	0	0	0	0	0	-0.00556242575235621	-0.0006729944191894839	-0.000399716427851223	-0.003031876897137327	-0.0003736767847367437	0	0	-0.1246505235177073	9.799668794113122	12.11636244935759	-2.563724446711634	-0.0003325895640827632	0	0
42.71666666666667	0	0	0	0	0.93	0	0	0	0	0	0	0	0	0	0	0	0	0	0	0	0	0	0	0	0	-0.00556242575235621	-0.0006729944191894839	-0.000399716427851223	-0.003031876897137327	-0.0003736767847367437	0	0	-0.0670427227048192	9.870903906855615	12.17418994332987	-2.57581649233477	-0.0003325895640827632	0	0
42.73333333333333	0	0	0	0	0.93	0	0	0	0	0	0	0	0	0	0	0	0	0	0	0	0	0	0	0	0	-0.00556242575235621	-0.0006729944191894839	-0.000399716427851223	-0.003031876897137327	-0.0003736767847367437	0	0	-0.004797301515705564	9.952929466867433	12.22946230106138	-2.5990889803661	-0.0003325895640827632	0	0
42.75	0	0	0	0	0.93	0	0	0	0	0	0	0	0	0	0	0	0	0	0	0	0	0	0	0	0	-0.00556242575235621	-0.0006729944191894839	-0.000399716427851223	-0.003031876897137327	-0.0003736767847367437	0	0	0.07777619757217009	10.03461941056015	12.26394619818466	-2.621539192482531	-0.0003325895640827632	0	0
